<svg id="0ddebeb3-1ee0-47c2-9dc8-cbdbe9c87ed1" data-name="Calque 2" xmlns="http://www.w3.org/2000/svg" viewBox="0 0 260 260"><defs><style>.\31 db60a25-d9f1-464d-9b70-ebe0e03462c8{fill:#ecf0f1;}</style></defs><title>Logo ESTEVE 2017</title><path class="1db60a25-d9f1-464d-9b70-ebe0e03462c8" d="M258,130A127.48,127.48,0,0,1,41.58,221.42a127.28,127.28,0,0,1-36-66.07A131.31,131.31,0,0,1,3,130,127.47,127.47,0,0,1,221.88,41.12,127.31,127.31,0,0,1,258,130Zm0,0a126.32,126.32,0,0,0-2.44-24.38,122.38,122.38,0,0,0-7.22-23.39A122.25,122.25,0,0,0,133,7.51,122.61,122.61,0,1,0,255.56,154.38,126.32,126.32,0,0,0,258,130Z"/><path id="9364595c-f10a-4620-bce6-3633d06a06cc" data-name="E" class="1db60a25-d9f1-464d-9b70-ebe0e03462c8" d="M122.72,54.3a270.14,270.14,0,0,1,44-4.89q7.34,0,11.74-2.94c2.94-2,2.94-4.89,0-9.78s-7.83-6.85-13.7-6.85-19.57,2-26.42,2-36.2,4.89-40.11,6.85-7.83,7.83-8.81,10.76-3.91,9.78-3.91,14.68-2.94,64.57-2.94,70.44a411.59,411.59,0,0,1,0,53.81c0,8.81,0,25.44,3.91,27.39s2,5.87,21.52,5.87,63.6-5.87,69.47-7.83,10.76-2,15.65-4.89,3.91-7.83,2.94-10.76-2-10.76-17.61-5.87-48.92,6.85-53.81,5.87-17.61,1-17.61-2,2-47,2-52.83-2.94-11.74,1-14.68,21.52-2,29.35-2.94,23.48-2.94,27.39-4.89,6.85-7.83,5.87-12.72,0-9.78-6.85-8.81-45,4.89-49.9,5.87-6.85-1-6.85-7.83,2-27.39,3.91-32.29S117.83,55.28,122.72,54.3Z"/></svg>