<svg id="7c1d13bc-ba47-4e75-8e84-826bf2069676" data-name="Calque 2" xmlns="http://www.w3.org/2000/svg" viewBox="0 0 468 208"><defs><style>.\31 03aedba-e8a3-4d83-9875-0c3f149177ed{fill:#5e666e;}</style></defs><title>Logo ESTEVE 2017</title><path class="103aedba-e8a3-4d83-9875-0c3f149177ed" d="M203.5,104A98.11,98.11,0,0,1,70.12,195.46,98,98,0,0,1,9.48,123.59,101.5,101.5,0,0,1,7.5,104a98,98,0,0,1,188.9-36.62A97.6,97.6,0,0,1,203.5,104Zm0,0a96.5,96.5,0,0,0-1.88-18.62,93.4,93.4,0,1,0,0,37.25A96.49,96.49,0,0,0,203.5,104Z"/><path class="103aedba-e8a3-4d83-9875-0c3f149177ed" d="M296.58,80.32c-3-1.49-2.24-2.24-6.73-2.24s-9,5.23-12,8.22S263.69,101.25,259.2,105,236,122.93,230.8,126.67s-29.3,19.13-37.37,23.17c-4.48,2.24.75,6.73,3.74,7.47s8.22-.75,12-3.74,6.73-2.24,9-.75,9.72,19.43,16.44,17.94,20.93-10.46,24.67-13.45.75-6.73-2.24-7.47-3-3,0-6,14.2-16.44,17.94-20.93S288.35,99,290.6,95.27,299.57,81.82,296.58,80.32ZM254,126.67c-7.47,8.22-12.71,14.2-14.95,14.95s-2.24-4.48-2.24-4.48a11.56,11.56,0,0,1,2.24-4.48c3.74-3,7.47-4.48,11.21-6.73C251.73,124.43,261.44,118.45,254,126.67Z"/><path class="103aedba-e8a3-4d83-9875-0c3f149177ed" d="M354.13,139.38c-2.24-.75-3.74,3.74-6.73,4.48s-3.74,0-3.74-2.24,5.23-6.73,6.73-9.72a20.92,20.92,0,0,0,1.49-14.2c-1.49-6-6.73-10.46-12.71-10.46s-9,3-12,3.74c0,0-8.22,5.23-8.22,13.45v8.22c0,4.48.75,7.47-3.74,9s-5.23-1.49-6.73-5.23-.75-20.93-.75-23.92,1.49-26.91,3-30.65,1.49-4.48,2.24-6,7.47-.75,11.21-1.49,6-5.23,6-7.47-3-3.74-5.23-4.48-8.22,0-9.72,0,.75-6,1.49-7.47S319,40,319,37.72,316,28,312.27,28s-3.74,2.24-6,4.48-7.17,10-8.22,14.2c-1.49,6-1.49,11.21-2.24,14.2s-.75,18.69-.75,20.18-1.49,15.7-2.24,17.94.75,29.9,0,34.38.75,19.43,1.49,22.42,6.73,5.23,11.21,5.23a51,51,0,0,0,17.19-3.74c5.23-2.24,6-.75,9.72.75s10.46-.75,14.2-1.49,9.72-8.22,11.21-11.21S356.37,140.12,354.13,139.38Zm-14.95-9.72c-1.49,2.24-1.49,7.47-5.23,6.73s-.7-7,2.24-8.22C339.93,126.67,340.68,127.42,339.18,129.66Z"/><path id="3517587a-47ad-4b8f-a514-7ba3a3394524" data-name="accent" class="103aedba-e8a3-4d83-9875-0c3f149177ed" d="M347.4,86.3c3,2.24,3,2.24,7.47,2.24s7.47-2.24,8.22-5.23-3-4.48-4.48-5.23-7.47-2.24-8.22-3.74c-.67-1.34-2.24-6.73-3-8.22s-4.48-2.24-7.47-1.49-6.73,3-6.73,5.23a10.83,10.83,0,0,0,3,6.73c1.49,1.49,4.48,5.23,5.23,5.23s3,1.49,4.48,3Z"/><path class="103aedba-e8a3-4d83-9875-0c3f149177ed" d="M446.07,119.19c-7.47,2.24-13.45,1.49-14.95-1.49s-2.24-4.48,2.24-6,7.47-2.24,10.46-3,9-5.23,8.22-12,0-13.45-14.2-13.45-20.18,12-21.68,15.7-1.49,3-3,2.24-3.74-2.24-4.48-.75-4.48,8.22-6,12-12,23.17-13.45,25.41-2.24,6-5.23,2.24-8.22-11.21-9-13.45-4.48-15.7-6-18.69-4.48-9.72-8.22-10.46-7.47,5.23-7.47,7.47,1.49,5.23,2.24,6.73,4.48,11.21,4.48,11.21c1.49,4.48,3,11.21,4.48,13.45s2.24,5.23,3.74,7.47,1.49,3,3,5.23,5.23,7.47,6.73,9.72,3,5.23,4.48,7.47a4.88,4.88,0,0,0,6,1.49c1.49-.75,3-5.23,4.48-6.73s6-10.46,8.22-12.71,7.47-16.44,9-20.18a97.28,97.28,0,0,1,4.48-9c.75-1.49,1.49-2.24,2.24-1.49s.75,3,1.49,5.23,6,9,9,9.72,8.22.75,11.21-.75,9-4.48,11.21-7.47S453.55,117,446.07,119.19Zm-15.7-20.93c.75-.75,6-3.74,9-3.74s4.48,3.74,2.24,5.23-4.62,1.94-8.22,3.74c-1.49.75-3.74.75-4.48,0S429.63,99,430.38,98.26Z"/><path id="7864b43d-86ef-4325-8c91-48686162848f" data-name="E" class="103aedba-e8a3-4d83-9875-0c3f149177ed" d="M100.65,46.67a206.38,206.38,0,0,1,33.64-3.74q5.61,0,9-2.24c2.24-1.49,2.24-3.74,0-7.47s-6-5.23-10.46-5.23-14.95,1.49-20.18,1.49S84.95,33.21,82,34.71s-6,6-6.73,8.22-3,7.47-3,11.21S70,103.48,70,108a314.45,314.45,0,0,1,0,41.11c0,6.73,0,19.43,3,20.93s1.49,4.48,16.44,4.48,48.59-4.48,53.07-6,8.22-1.49,12-3.74,3-6,2.24-8.22-1.49-8.22-13.45-4.48-37.37,5.23-41.11,4.48-13.45.75-13.45-1.49,1.49-35.88,1.49-40.36-2.24-9,.75-11.21,16.44-1.49,22.42-2.24S131.29,99,134.28,97.5s5.23-6,4.48-9.72,0-7.47-5.23-6.73-34.38,3.74-38.12,4.48-5.23-.75-5.23-6,1.49-20.93,3-24.67S96.91,47.41,100.65,46.67Z"/></svg>